<svg xmlns="http://www.w3.org/2000/svg" width="90" height="26" viewBox="0 0 90 26" fill="none"><path d="M12.7105 6.82774C9.18543 6.82774 6.50545 9.68021 6.50545 13.1994C6.50545 16.7186 9.18543 19.5711 12.7105 19.5711C16.2355 19.5711 18.9155 16.7186 18.9155 13.1994C18.9155 9.68021 16.2355 6.82774 12.7105 6.82774ZM12.7105 17.0423C10.6054 17.0423 9.04063 15.3226 9.04063 13.1994C9.04063 11.0762 10.6054 9.35656 12.7105 9.35656C14.8156 9.35656 16.3803 11.0762 16.3803 13.1994C16.3803 15.3226 14.8156 17.0423 12.7105 17.0423Z" fill="white"/><path d="M18.8982 4.34854L19.6201 3.32364C19.8924 2.92446 19.7627 2.59865 19.3542 2.3462C17.4069 1.14868 15.116 0.456055 12.6608 0.456055C5.61068 0.456055 0 6.16101 0 13.1994C0 20.2378 5.61068 25.9428 12.6608 25.9428C15.116 25.9428 17.4069 25.2502 19.3542 24.0526C19.7627 23.8002 19.8924 23.4744 19.6201 23.0752L18.8982 22.0503C18.6324 21.6835 18.2714 21.7784 17.93 21.9834C16.3911 22.9069 14.5886 23.4377 12.6608 23.4377C6.99822 23.4377 2.61515 18.8547 2.61515 13.1994C2.61515 7.54409 6.99822 2.96114 12.6608 2.96114C14.5865 2.96114 16.389 3.49194 17.93 4.41543C18.2714 4.62041 18.6324 4.71535 18.8982 4.34854Z" fill="white"/><path d="M31.6908 6.82774C30.3076 6.82774 29.2853 7.3909 28.3884 8.40717C27.8329 7.35421 26.8474 6.82774 25.7127 6.82774C24.47 6.82774 23.7352 7.28517 23.009 8.11588V7.70808C23.009 7.36716 22.7302 7.08882 22.3887 7.08882H21.1114C20.7699 7.08882 20.4911 7.36716 20.4911 7.70808V18.6929C20.4911 19.0338 20.7699 19.3122 21.1114 19.3122H22.3887C22.7302 19.3122 23.009 19.0338 23.009 18.6929V11.3309C23.009 9.97582 23.8973 9.19905 24.9239 9.19905C25.8878 9.19905 26.6118 9.85714 26.6118 11.4258V18.6929C26.6118 19.0338 26.8906 19.3122 27.2321 19.3122H28.5094C28.8509 19.3122 29.1297 19.0338 29.1297 18.6929V11.3309C29.1297 9.98876 30.018 9.19905 31.0446 9.19905C32.0085 9.19905 32.7326 9.85714 32.7326 11.4258V18.6929C32.7326 19.0338 33.0114 19.3122 33.3529 19.3122H34.6302C34.9716 19.3122 35.2505 19.0338 35.2505 18.6929V11.0762C35.2505 8.37049 33.9407 6.82989 31.693 6.82989L31.6908 6.82774Z" fill="white"/><path d="M43.2688 6.82774C41.7386 6.82774 40.4073 7.49662 39.6098 8.43954V7.70808C39.6098 7.36716 39.3309 7.08882 38.9895 7.08882H37.7122C37.3707 7.08882 37.0919 7.36716 37.0919 7.70808V23.1335C37.0919 23.4744 37.3707 23.7527 37.7122 23.7527H38.9895C39.3309 23.7527 39.6098 23.4744 39.6098 23.1335V17.9528C40.6385 19.0705 41.7278 19.5711 43.2688 19.5711C46.5885 19.5711 48.7844 16.7186 48.7844 13.1994C48.7844 9.68021 46.5885 6.82774 43.2688 6.82774ZM42.8992 17.0423C40.7941 17.0423 39.5125 15.3226 39.5125 13.1994C39.5125 11.0762 40.7941 9.35656 42.8992 9.35656C45.0043 9.35656 46.2146 11.0762 46.2146 13.1994C46.2146 15.3226 45.0043 17.0423 42.8992 17.0423Z" fill="white"/><path d="M55.828 6.82774C52.2014 6.82774 50.1092 9.55291 50.1092 13.3159C50.1092 16.8438 52.3526 19.5689 55.8539 19.5689C57.7731 19.5689 59.3898 18.8677 60.5633 17.4501C60.8054 17.1588 60.8141 16.8589 60.4877 16.6647L59.4287 16.0411C59.0699 15.8297 58.8343 15.8081 58.4604 16.1339C57.758 16.7445 57.0361 17.1739 56.0074 17.1739C54.207 17.1739 53.1307 15.9677 52.8649 14.2977H60.6563C61.3436 14.2977 61.3911 13.7561 61.3911 12.9836C61.3911 9.47092 59.3465 6.82558 55.828 6.82558V6.82774ZM52.8778 12.0925C53.0399 10.4915 54.2157 9.30046 55.8107 9.30046C57.5289 9.30046 58.4626 10.4397 58.6247 12.0925H52.8778Z" fill="white"/><path d="M68.3504 6.82774C64.7238 6.82774 62.6317 9.55291 62.6317 13.3159C62.6317 16.8438 64.8751 19.5689 68.3764 19.5689C70.2956 19.5689 71.9122 18.8677 73.0858 17.4501C73.3279 17.1588 73.3365 16.8589 73.0102 16.6647L71.9511 16.0411C71.5924 15.8297 71.3568 15.8081 70.9829 16.1339C70.2805 16.7445 69.5586 17.1739 68.5298 17.1739C66.7295 17.1739 65.6532 15.9677 65.3873 14.2977H73.1787C73.866 14.2977 73.9136 13.7561 73.9136 12.9836C73.9136 9.47092 71.869 6.82558 68.3504 6.82558V6.82774ZM65.4025 12.0925C65.5645 10.4915 66.7403 9.30046 68.3353 9.30046C70.0535 9.30046 70.9872 10.4397 71.1493 12.0925H65.4025Z" fill="white"/><path d="M86.235 2.64828H84.9577C84.6162 2.64828 84.3374 2.92662 84.3374 3.26753V8.44817C83.3086 7.33048 82.2194 6.82989 80.6784 6.82989C77.3586 6.82989 75.1628 9.68237 75.1628 13.2016C75.1628 16.7208 77.3586 19.5733 80.6784 19.5733C82.2086 19.5733 83.5399 18.9044 84.3374 17.9615V18.6929C84.3374 19.0338 84.6162 19.3122 84.9577 19.3122H86.235C86.5765 19.3122 86.8553 19.0338 86.8553 18.6929V3.26538C86.8553 2.92446 86.5765 2.64612 86.235 2.64612V2.64828ZM81.0501 17.0423C78.945 17.0423 77.7347 15.3226 77.7347 13.1994C77.7347 11.0762 78.945 9.35656 81.0501 9.35656C83.1552 9.35656 84.4368 11.0762 84.4368 13.1994C84.4368 15.3226 83.1552 17.0423 81.0501 17.0423Z" fill="white"/><path d="M88.9453 4.74988C88.3617 4.74988 87.8906 4.27734 87.8906 3.69692C87.8906 3.1165 88.3639 2.64396 88.9453 2.64396C89.5267 2.64396 90 3.1165 90 3.69692C90 4.27734 89.5267 4.74988 88.9453 4.74988ZM88.9453 2.82953C88.4677 2.82953 88.0959 3.19849 88.0959 3.69476C88.0959 4.19103 88.4655 4.56 88.9453 4.56C89.4251 4.56 89.7947 4.19103 89.7947 3.69476C89.7947 3.19849 89.4251 2.82953 88.9453 2.82953ZM89.1074 4.27087L88.9647 3.8048H88.8632V4.27087H88.673V3.12297H88.9755C89.0706 3.12297 89.1441 3.14671 89.1917 3.19202C89.25 3.25243 89.2673 3.3409 89.2673 3.46389C89.2673 3.57825 89.2565 3.65592 89.1938 3.72065C89.1787 3.73792 89.1593 3.75302 89.1398 3.76381L89.3041 4.27087H89.1074ZM89.049 3.32795C89.0317 3.31069 89.008 3.2999 88.9755 3.2999H88.861V3.63219H88.9755C89.008 3.63219 89.0296 3.6214 89.049 3.60198C89.0793 3.56962 89.0815 3.52646 89.0815 3.46605C89.0815 3.40563 89.075 3.36032 89.049 3.32795Z" fill="white"/></svg>