<svg height="53" viewBox="0 0 175 53" width="175" xmlns="http://www.w3.org/2000/svg"><g fill="none" fill-rule="evenodd"><path d="m32.7311072 11.1949085c1.6063337-3.5355579 5.4834446-4.95243191 8.6597939-3.1644403l.977613.55004931-.4941649 1.08816985c-1.6063337 3.53555794-5.4834446 4.95243194-8.6597939 3.16444034l-.977613-.5507121zm1.1002504-11.1949085.5099275.99241959c1.6556085 3.22551215.0834426 7.04374408-3.5132014 8.52851306l-1.1066087.45730885-.5099275-.99241959c-1.6556085-3.22551215-.0834427-7.04374407 3.5132014-8.52851306z" fill="#88bc24"/><g fill="#1e4a22"><path d="m31.4324341 26.3813185c.443333.756192.6778942 1.6140259.6778942 2.4792075 0 2.7192295-2.2185072 4.9314737-4.9454351 4.9314737-1.0678063 0-2.0895599-.3410517-2.9541207-.9864172-.9449994-.7059833-2.2780686-.5553572-3.0413137.3428887-.9437712 1.1107143-2.3192089 1.7481199-3.7720149 1.7481199-1.4902621 0-2.8865769-.6625099-3.8321903-1.8166977-.4193856-.512496-1.0450869-.8125236-1.7082444-.8186466h-.0208772c-.655789 0-1.2784201.2871692-1.7027181.7861947-.61464865.7225154-1.50806908 1.136431-2.45245438 1.136431-1.77271805 0-3.2156995-1.4382955-3.2156995-3.2066213 0-1.3170599.832631-2.5196194 2.0711389-2.9917036.7742977-.2951292 1.32078855-.9931525 1.41964813-1.8136361.09947361-.8204836-.26526297-1.6281089-.94745548-2.0977439-1.34043765-.9233501-2.14052481-2.4406325-2.14052481-4.0583322 0-2.6702455 2.17982303-4.8800404 4.86008431-4.9253507.96649053-.0165321 1.81324433-.6521008 2.09631433-1.5736141.8946485-2.9108798 3.5478922-4.86595746 6.6039427-4.86595746 3.5460502 0 6.5664866 2.75535536 6.8771882 6.27241336.0994736 1.1266341 1.0303501 2.0003879 2.1638581 2.0303907 2.6022789.0704146 4.6408739 2.1565247 4.6408739 4.7496203 0 .8449756-.231491 1.681379-.6705258 2.4185896-.4138594.6961865-.4163155 1.5607557-.0073684 2.2593914m-1.9802618-13.643295c-1.2471044-4.97617168-5.7074521-8.53976456-11.0237642-8.53976456-4.5174529 0-8.50192384 2.59676931-10.33420325 6.59754526-4.36087414.8143606-7.69139811 4.6651227-7.69139811 9.2200312 0 2.0297784.66008725 3.9756716 1.83964783 5.568267-1.40184112 1.4107419-2.24245457 3.3431644-2.24245457 5.3931488 0 4.2236535 3.44596249 7.6592755 7.68095952 7.6592755 1.45649021 0 2.86201558-.4102418 4.06859368-1.1639846 1.258771.9441685 2.7361384 1.5521835 4.306225 1.7762858v8.2985179h-10.68972933v4.4526542h26.08357823v-4.4526542h-10.9292029v-8.7320272c.9585081-.3367656 1.8586829-.8259943 2.6642964-1.4542153 1.2385079.5816861 2.587542.8835506 3.9801726.8835506 5.1892069 0 9.4106952-4.2095706 9.4106952-9.3841279 0-1.2343992-.24807-2.457777-.7239469-3.5966572.4758769-1.1260218.7239469-2.3371536.7239469-3.5605313 0-4.3853011-3.0075418-8.0217578-7.1234161-8.965314"/><path d="m53.5921391 17.6237694h2.9743112c3.8833774 0 5.8660381 2.7990876 5.8660381 5.9608638 0 3.188285-2.0101888 5.9614664-6.0030382 5.9614664h-2.8373111zm12.7237266 5.7536133c0-4.4576948-3.387232-8.8635769-9.7494154-8.8635769h-6.8295203v18.1422573h6.3890713c6.8576885 0 10.1898644-4.8209857 10.1898644-9.2786804z"/><path d="m68.1583266 33.563176c1.5344919 0 2.7627991-1.2157669 2.7627991-2.7057881 0-1.5204154-1.2283072-2.7368891-2.7627991-2.7368891-1.5352056 0-2.7635128 1.2164737-2.7635128 2.7368891 0 1.4900212 1.2283072 2.7057881 2.7635128 2.7057881"/><path d="m84.2514464 22.3670361h-2.4701143v-4.7426643h2.5698466c1.5214976 0 2.3947352 1.0103466 2.3947352 2.3062651 0 1.3736375-.9729699 2.4363992-2.4944675 2.4363992m.6233269-7.8532303h-6.5852317v18.1422573h3.4917905v-7.1790635h2.8191774c3.5422366 0 5.6627079-2.824994 5.6627079-5.6758943 0-2.6436497-1.8711406-5.2872995-5.3884441-5.2872995"/><path d="m98.4677246 32.6560631c.9669869 0 1.9600924-.2550569 2.8481164-.663148l-1.22817-2.5262497c-.261184.1275285-.6007228.2550569-.9402615.2550569-.8363951 0-1.6460644-.4335967-1.6460644-1.6329573v-13.5749592h-3.5539198v13.6259705c0 3.2149034 2.1690391 4.5162868 4.5202993 4.5162868"/><path d="m109.326895 30.3471865c-1.885935 0-3.505801-1.5399433-3.505801-4.0409134 0-2.5565615 1.673574-4.0958658 3.584818-4.0958658 1.939642 0 3.638526 1.5667805 3.638526 4.0409134 0 2.5284463-1.778519 4.0958658-3.717543 4.0958658m7.648682 3.1885133c1.035257 0 2.177312-.4677338 2.761304-1.3469712l-1.114893-2.2543236c-.266068.2472855-.637699.3846664-.983402.3846664-.477811 0-.902532-.3022379-.902532-1.0440944v-9.8684167h-3.584818v1.6766852c-.823515-1.4019235-2.257565-2.0338754-3.983612-2.0338754-3.426165 0-6.930731 2.5009702-6.930731 7.3393315 0 4.6179129 3.239733 7.1744744 6.585645 7.1744744 2.337201 0 4.169427-1.2645427 4.913306-2.8869145.238289 1.6223718 1.540231 2.8594383 3.239733 2.8594383"/><path d="m125.029097 25.7343364c0-2.0788428.964097-3.6584697 2.815636-3.6584697 1.623339 0 2.23246 1.210721 2.23246 2.894963v7.6852334h3.475468v-8.4481284c0-3.3947906-2.080328-5.1585646-4.69312-5.1585646-1.572628 0-3.018479.6582799-3.855799 1.973616v-1.6316286h-3.424757v13.2647056h3.450112z"/><path d="m139.0272 28.7381829c0 3.2972447 2.142935 4.8249931 4.570395 4.8249931 1.265952 0 2.608138-.4286668 3.770845-1.2062483l-1.265952-2.4392882c-.568448.3750834-1.21313.5894168-1.781578.5894168-.980828 0-1.781577-.5352104-1.781577-1.8224568v-5.7627015h3.795456v-3.1358717h-3.795456v-3.4579948h-3.512133v3.4579948h-2.711383v3.1358717h2.711383z"/><path d="m154.473792 22.2104073c1.684135 0 2.920472.9623048 3.088233 2.7214184h-6.290047c.224551-1.5942566 1.404098-2.7214184 3.201814-2.7214184m6.598153 8.4664932-2.330373-2.2543236c-.926274 1.2370664-2.302304 1.8421811-3.874815 1.8421811-1.517027 0-3.286021-.6051147-3.594779-2.5016091h9.799967c.084206-.7424955.112275-1.2913799.112275-1.7597527 0-4.6453891-3.116302-6.9540261-6.570736-6.9540261-3.622196 0-7.245044 2.5016092-7.245044 7.3118553 0 4.8651984 3.707055 7.2019506 7.470248 7.2019506 2.498786 0 4.688814-1.0172572 6.233257-2.8862755"/><path d="m175 28.8628345c0-2.8862754-2.518133-3.4639139-4.599655-3.8760564-1.644312-.329714-3.08316-.5220472-3.08316-1.5942567 0-.5769995.411526-1.2920188 2.004472-1.2920188 1.361202 0 2.337755.5501623 3.108844 1.2645427l1.875459-2.4466568c-1.259663-1.153999-3.108843-1.8690184-5.139596-1.8690184-2.671634 0-5.291902 1.2370665-5.291902 4.453056 0 3.3808465 2.902782 3.957846 5.138401 4.4262187 1.592947.329714 2.518134.5769995 2.518134 1.4287607 0 .7974478-.822455 1.1271618-1.978192 1.1271618-1.310433 0-3.032392-.4396186-4.291458-2.2811608l-2.235023 2.4460178c1.335519 1.8964945 4.008347 2.9137517 6.295333 2.9137517 2.903379 0 5.678343-1.649209 5.678343-4.7003415"/><path d="m51.546778 36.2845146h-1.809848v15.4209186h9.2105199v-1.5857123h-7.4006719z"/><path d="m65.9460503 50.0941229c-1.9775683 0-4.2448234-1.3873491-4.2448234-4.3188201 0-2.7970943 2.04999-4.2510265 4.1006325-4.2510265 2.0258495 0 4.3896668 1.4321414 4.3896668 4.340611 0 2.7970943-2.2431145 4.2292356-4.2454759 4.2292356m7.2121547.0447923c-.6028614 0-1.1580943-.4697133-1.1580943-1.3425569v-8.592848h-1.8085845v1.7456871c-1.0132509-1.4097452-2.8218354-2.0362314-4.3896668-2.0362314-2.8224879 0-5.9333576 1.9466469-5.9333576 5.8623368 0 3.9162952 3.1350103 5.9301304 5.9568458 5.9301304 2.0506425 0 3.715036-1.0520125 4.4386003-2.327381.217265 1.5217259 1.3264258 2.3049849 2.6769921 2.3049849.7000762 0 1.230516-.2239612 1.6643936-.5816939l-.627002-1.1639932c-.2414056.1119807-.5304399.2015652-.8201266.2015652"/><path d="m82.861813 50.0494892c-1.9555328 0-3.8230963-1.4257791-3.8230963-4.2773372 0-2.9672626 1.9995174-4.5535351 3.9990348-4.5535351 1.9555328 0 3.7351271 1.5408615 3.7351271 4.4154361 0 2.9896571-1.9775251 4.4154362-3.9110656 4.4154362m.3738693-10.4631778c-1.7581963 0-3.2744772.873383-4.1969656 2.299162v-6.5080717h-1.6702271v16.0978665h1.6702271v-1.7019771c.8785038 1.2192526 2.3947847 1.9321421 3.8890732 1.9321421 2.7906464 0 5.4933235-2.0242081 5.4933235-6.1174132 0-4.0017611-2.5267386-6.0017086-5.1854311-6.0017086"/><path d="m96.7216118 50.1196122c-2.2966792 0-3.9065608-1.8310947-3.9065608-4.3327651s1.6098816-4.3327651 3.9065608-4.3327651c2.2746182 0 3.9065612 1.8310947 3.9065612 4.3327651s-1.631943 4.3327651-3.9065612 4.3327651m0-10.2066462c-3.1982826 0-5.5373425 2.524023-5.5373425 5.8962336 0 3.3722107 2.3390599 5.8962336 5.5373425 5.8962336s5.5152812-2.5240229 5.5152812-5.8962336c0-3.3722106-2.3169986-5.8962336-5.5152812-5.8962336"/><path d="m106.808966 42.4173581v-1.4486147h-1.808917v10.7366898h1.808917v-6.262925c0-1.9384009 1.165404-3.0251501 2.807007-3.0251501.475557 0 .999377.1066006 1.451123.2984815l.380317-1.5978555c-.475557-.1918809-1.070163-.2979052-1.689223-.2979052-1.166047 0-2.306997.4684661-2.949224 1.5972792"/><path d="m118.446666 50.0941229c-1.977568 0-4.244824-1.3873491-4.244824-4.3188201 0-2.7970943 2.049991-4.2510265 4.099328-4.2510265 2.027155 0 4.390319 1.4321414 4.390319 4.340611 0 2.7970943-2.243767 4.2292356-4.244823 4.2292356m7.212155.0447923c-.603514 0-1.158095-.4697133-1.158095-1.3425569v-8.592848h-1.809237v1.7456871c-1.012598-1.4097452-2.821835-2.0362314-4.390319-2.0362314-2.821183 0-5.932705 1.9466469-5.932705 5.8623368 0 3.9162952 3.135663 5.9301304 5.956846 5.9301304 2.050642 0 3.715036-1.0520125 4.4386-2.327381.217265 1.5217259 1.325773 2.3049849 2.677645 2.3049849.699423 0 1.229211-.2239612 1.663741-.5816939l-.627002-1.1639932c-.241406.1119807-.53044.2015652-.819474.2015652"/><path d="m132.032959 50.2179632c-.967831 0-1.680937-.6309555-1.680937-1.9605342v-6.5808356h3.131439v-1.5776936h-3.131439v-2.9072724h-1.727024v2.9072724h-2.440753v1.5776936h2.440753v6.5576701c0 2.4573639 1.589386 3.4711697 3.269077 3.4711697.990252 0 1.88833-.3608943 2.579638-.9912402l-.805904-1.1271853c-.437205.3828406-1.10547.6309555-1.63485.6309555"/><path d="m142.774211 50.1196122c-2.296679 0-3.906561-1.8310947-3.906561-4.3327651s1.609882-4.3327651 3.906561-4.3327651c2.274618 0 3.906561 1.8310947 3.906561 4.3327651s-1.631943 4.3327651-3.906561 4.3327651m0-10.2066462c-3.198283 0-5.537342 2.524023-5.537342 5.8962336 0 3.3722107 2.339059 5.8962336 5.537342 5.8962336 3.197702 0 5.515281-2.5240229 5.515281-5.8962336 0-3.3722106-2.317579-5.8962336-5.515281-5.8962336"/><path d="m151.525199 35.3774017c-.768951 0-1.393603.6151979-1.393603 1.3488262 0 .7573145.624652 1.3725124 1.393603 1.3725124.769602 0 1.369553-.6151979 1.369553-1.3725124 0-.7336283-.599951-1.3488262-1.369553-1.3488262"/><path d="m151.052648 51.7054332h1.842104v-10.8853543h-1.842104z"/><path d="m158.387234 42.4173581v-1.4486147h-1.808274v10.7366898h1.808274v-6.262925c0-1.9384009 1.166047-3.0251501 2.807007-3.0251501.4762 0 .999376.1066006 1.451767.2984815l.380316-1.5978555c-.475556-.1918809-1.070163-.2979052-1.689223-.2979052-1.166047 0-2.306997.4684661-2.949867 1.5972792"/><path d="m166.578127 45.0397586c.192537-2.3402825 1.731092-3.5668052 3.462763-3.5668052 1.582498 0 3.22744 1.070343 3.248833 3.5668052zm3.676692-5.1267926c-2.757374 0-5.386391 1.9839035-5.386391 5.8847764 0 3.7676077 2.479266 5.9076908 5.322212 5.9076908 1.688306 0 3.377191-.7579838 4.616824-2.3855083l-1.06849-1.0474287c-.833746 1.2928539-2.051986 1.8277239-3.377769 1.8277239-1.858871 0-3.419976-1.0257203-3.718899-3.4998711h8.250729c.085572-.4456245.106965-.9364748.106965-1.2928539 0-2.8534442-1.603313-5.3945291-4.745181-5.3945291z"/></g></g></svg>